Coordinates
version=1
nRows=9
nColumns=24
inDegrees=yes

Units are S.I. units (second, meters, Newtons, ...)
Angles are in degrees.

endheader
time	pelvis_tilt	pelvis_list	pelvis_rotation	pelvis_tx	pelvis_ty	pelvis_tz	hip_flexion_r	hip_adduction_r	hip_rotation_r	knee_angle_r	ankle_angle_r	subtalar_angle_r	mtp_angle_r	hip_flexion_l	hip_adduction_l	hip_rotation_l	knee_angle_l	ankle_angle_l	subtalar_angle_l	mtp_angle_l	lumbar_extension	lumbar_bending	lumbar_rotation
      6.02000000	     36.22276324	      0.77226408	      4.03506849	      0.49318833	      0.68443728	     -0.31681490	    -24.55900276	     -2.95908597	    -17.39672937	    -55.74644025	      9.29707407	     -2.38332070	      0.00000000	    -33.27463386	      1.26563995	     -6.62232413	     -7.27621099	     11.06030895	     16.35114720	      0.00000000	    -63.02451087	      3.13785256	     -3.50589514
      6.02500000	     36.21477858	      0.74812124	      4.19764906	      0.49799881	      0.68456636	     -0.31683856	    -23.81072554	     -2.83462393	    -17.56024504	    -55.24867607	     10.11200336	     -2.14155181	      0.00000000	    -33.77633537	      1.13989101	     -6.52513468	     -7.16321897	     11.37416111	     16.34901858	      0.00000000	    -63.09236853	      3.24597266	     -3.59666226
      6.03000000	     36.19736273	      0.73383762	      4.33883777	      0.50278803	      0.68464455	     -0.31682563	    -23.07185732	     -2.72596851	    -17.70823530	    -54.66560930	     10.86927507	     -1.85504761	      0.00000000	    -34.26559503	      1.02832990	     -6.44918838	     -7.05353311	     11.69435956	     16.37602818	      0.00000000	    -63.15664078	      3.33015692	     -3.68469317
      6.03500000	     36.16940193	      0.73681415	      4.46910116	      0.50756570	      0.68467579	     -0.31677963	    -22.34722733	     -2.62909830	    -17.83564916	    -53.99174460	     11.56651862	     -1.53051017	      0.00000000	    -34.73782558	      0.93222036	     -6.40007465	     -6.95608460	     12.02025890	     16.42356450	      0.00000000	    -63.21528808	      3.38776071	     -3.76903943
      6.04000000	     36.13152814	      0.75115655	      4.58332567	      0.51232361	      0.68465584	     -0.31672134	    -21.63482594	     -2.54993663	    -17.95104821	    -53.23436645	     12.21408430	     -1.17637301	      0.00000000	    -35.19731180	      0.85195234	     -6.35905952	     -6.86090346	     12.34701582	     16.49569588	      0.00000000	    -63.26936883	      3.43376098	     -3.85311720
      6.04500000	     36.08538522	      0.79100209	      4.69309083	      0.51711309	      0.68459558	     -0.31661815	    -20.95307800	     -2.48833688	    -18.06327886	    -52.38026189	     12.79837215	     -0.77777373	      0.00000000	    -35.65239372	      0.78935937	     -6.30206070	     -6.76556650	     12.67863402	     16.60196188	      0.00000000	    -63.30586042	      3.44500277	     -3.94442482
      6.05000000	     36.03006920	      0.82372760	      4.78693307	      0.52185502	      0.68449030	     -0.31650872	    -20.28379342	     -2.42034467	    -18.15031555	    -51.43082194	     13.33610759	     -0.40644291	      0.00000000	    -36.07793583	      0.72977506	     -6.29319677	     -6.70427671	     13.01177324	     16.68480078	      0.00000000	    -63.34718699	      3.45423404	     -4.02786123
      6.05500000	     35.96401991	      0.87439517	      4.87245895	      0.52661487	      0.68433903	     -0.31637070	    -19.63905520	     -2.36467301	    -18.22211290	    -50.38850192	     13.82598335	     -0.02771477	      0.00000000	    -36.49527886	      0.68802033	     -6.28067365	     -6.64128063	     13.34601860	     16.78481504	      0.00000000	    -63.37388078	      3.44533940	     -4.10988699
      6.06000000	     35.88352662	      0.93613291	      4.93736427	      0.53134104	      0.68412920	     -0.31615768	    -18.99518949	     -2.30414499	    -18.24243729	    -49.26817152	     14.26211132	      0.23802832	      0.00000000	    -36.89960175	      0.66679025	     -6.27477772	     -6.56336380	     13.67289788	     16.83632096	      0.00000000	    -63.40276184	      3.39454030	     -4.19249201
